<svg width="8" height="8" viewBox="0 0 8 8" fill="none" xmlns="http://www.w3.org/2000/svg">
<path fill-rule="evenodd" clip-rule="evenodd" d="M4.00002 0C4.13263 0 4.25981 0.0526785 4.35358 0.146447C4.44734 0.240215 4.50002 0.367392 4.50002 0.5V6.293L6.64602 4.146C6.69251 4.09951 6.7477 4.06264 6.80844 4.03748C6.86918 4.01232 6.93428 3.99937 7.00002 3.99937C7.06577 3.99937 7.13087 4.01232 7.19161 4.03748C7.25234 4.06264 7.30753 4.09951 7.35402 4.146C7.40051 4.19249 7.43739 4.24768 7.46254 4.30842C7.4877 4.36916 7.50065 4.43426 7.50065 4.5C7.50065 4.56574 7.4877 4.63084 7.46254 4.69158C7.43739 4.75232 7.40051 4.80751 7.35402 4.854L4.35402 7.854C4.30758 7.90056 4.2524 7.93751 4.19165 7.96271C4.13091 7.98792 4.06579 8.00089 4.00002 8.00089C3.93425 8.00089 3.86913 7.98792 3.80839 7.96271C3.74764 7.93751 3.69247 7.90056 3.64602 7.854L0.646021 4.854C0.599533 4.80751 0.562657 4.75232 0.537498 4.69158C0.512339 4.63084 0.49939 4.56574 0.49939 4.5C0.49939 4.43426 0.512339 4.36916 0.537498 4.30842C0.562657 4.24768 0.599533 4.19249 0.646021 4.146C0.739908 4.05211 0.867246 3.99937 1.00002 3.99937C1.06577 3.99937 1.13087 4.01232 1.19161 4.03748C1.25234 4.06264 1.30753 4.09951 1.35402 4.146L3.50002 6.293V0.5C3.50002 0.367392 3.5527 0.240215 3.64647 0.146447C3.74024 0.0526785 3.86741 0 4.00002 0V0Z" fill="black"/>
</svg>
