<svg width="222" height="25" viewBox="0 0 222 25" fill="none" xmlns="http://www.w3.org/2000/svg">
  <path fill-rule="evenodd" clip-rule="evenodd" d="M98.4163 0.0126493C98.7697 0.0128501 99.1385 -0.0407742 99.4788 0.0712945C99.9441 0.195012 100.434 0.20164 100.915 0.245423C101.753 0.304671 102.593 0.34524 103.434 0.330177C141.708 0.33078 179.501 0.330177 217.776 0.33078C218.797 0.340621 219.821 0.26631 220.822 0.0722987C220.958 0.0566332 221.111 0.00120139 221.248 0.0654702C221.457 0.243214 221.367 0.530214 221.41 0.759171C221.527 1.71878 221.758 2.31428 221.978 3.25642C222.014 3.45083 222.021 3.67657 221.879 3.84086C221.737 3.98687 221.446 3.9455 221.37 3.76253C220.856 2.62176 220.573 2.36971 219.556 2.12328C218.261 1.80997 216.91 1.77321 215.579 1.78346C208.26 1.78928 200.942 1.77321 193.623 1.77582C186.67 1.76518 179.717 1.77241 172.763 1.76217C165.228 1.76518 157.694 1.74791 150.159 1.75474C145.014 1.73505 139.868 1.75915 134.724 1.74007C126.288 1.74469 117.852 1.72742 109.417 1.73284C109.42 4.99248 109.415 8.25251 109.418 11.5117C109.422 14.4619 109.403 17.3106 109.467 20.2603C109.5 21.132 109.498 22.0098 109.662 22.8727C109.741 23.2908 109.978 23.7483 110.469 23.8793C111.091 24.0305 111.744 24.0223 112.381 24.0809C112.6 24.0958 112.727 24.3512 112.595 24.5071C112.456 24.6726 112.2 24.6782 111.991 24.6856C110.915 24.6828 109.838 24.6597 108.761 24.6242C107.322 24.5501 105.882 24.7236 104.441 24.68C104.262 24.6706 104.039 24.5999 104.011 24.4171C103.956 24.2496 104.112 24.0791 104.303 24.0781C104.7 24.0508 105.101 24.0128 105.484 23.912C105.795 23.82 105.947 23.5318 106.038 23.2717C106.252 22.6126 106.285 21.9233 106.317 21.2416C106.374 19.8741 106.385 18.6054 106.39 17.2379C106.406 12.0687 106.393 6.89965 106.397 1.73144C104.71 1.75453 103.506 1.76779 101.819 1.79169C101.093 1.81258 100.347 1.83105 99.6586 2.05941C99.3196 2.17067 99.0213 2.37352 98.8164 2.63984C98.5597 2.96701 98.3455 3.31948 98.1697 3.68621C98.0993 3.85472 97.8979 4.01117 97.6895 3.9451C97.4859 3.8746 97.4855 3.64544 97.507 3.48336C97.6127 2.85956 97.7825 2.24639 97.9337 1.63062C98.08 1.08795 98.1728 0.530214 98.4163 0.0126493Z" fill="white"/>
  <path fill-rule="evenodd" clip-rule="evenodd" d="M12.0042 0.96402C13.9067 0.828453 15.8241 0.89935 17.7087 1.17812C18.6633 1.29962 19.5975 1.53862 20.5589 1.61595C20.9346 1.65611 21.3111 1.6776 21.688 1.70211C21.8774 1.71717 22.1085 1.77843 22.1742 1.96842C22.2109 2.1558 22.1724 2.3464 22.154 2.53338C21.9935 3.81836 21.97 5.11458 21.9629 6.40698C21.9538 6.57348 21.9549 6.75624 21.8557 6.90205C21.742 7.06212 21.4285 7.08582 21.3399 6.89141C21.2107 6.63494 21.2418 6.3395 21.1754 6.06736C21.0229 5.34072 20.729 4.5946 20.1254 4.08889C19.4252 3.48316 18.5401 3.10497 17.6461 2.82099C15.8399 2.26928 13.916 2.13693 12.0282 2.22108C11.1863 2.25381 10.3498 2.37452 9.53398 2.56672C8.23573 2.89088 7.02449 3.49741 5.99175 4.29796C4.58693 5.43793 3.77286 7.08642 3.36416 8.75621C2.9246 10.6178 2.90795 12.5736 3.37881 14.4307C3.79817 16.0802 4.56096 17.6594 5.65142 19.0167C6.22707 19.7462 6.96922 20.3447 7.74111 20.8855C8.7905 21.6047 9.96533 22.1645 11.2085 22.5226C12.6042 22.9202 14.0759 23.0707 15.5313 22.994C16.4202 22.9245 17.3242 22.8413 18.1622 22.537C18.4182 22.4288 18.6906 22.3131 18.8626 22.0966C19.0385 21.8676 19.0693 21.5762 19.07 21.3025C19.0693 19.5863 19.07 17.8687 19.0693 16.1525C19.0587 15.6131 19.0633 15.0704 18.9688 14.5364C18.9108 14.2231 18.7954 13.8869 18.4986 13.7009C17.9589 13.3542 17.2824 13.3139 16.6484 13.299C16.4606 13.3086 16.2253 13.1972 16.2539 12.9935C16.259 12.7794 16.5174 12.6963 16.7106 12.6947C17.599 12.677 18.4879 12.7124 19.3761 12.7359C19.8896 12.7441 20.4029 12.7917 20.917 12.7628C21.8039 12.7272 22.6906 12.6973 23.5777 12.6832C23.7677 12.6846 23.9662 12.6796 24.1456 12.7477C24.3372 12.8194 24.3951 13.0994 24.2224 13.2165C24.0561 13.3358 23.831 13.2936 23.6368 13.3261C23.2389 13.3779 22.7914 13.4141 22.491 13.6947C22.1809 13.9935 22.1258 14.4307 22.0796 14.8258C21.9875 15.9862 22.0033 17.1495 22.0011 18.3126C22.0011 19.4021 22.0004 20.4907 22.0011 21.5802C21.9951 21.9024 22.0053 22.2265 21.9615 22.5471C21.934 22.7023 21.8956 22.8712 21.7646 22.9815C21.5995 23.1213 21.3886 23.1982 21.1892 23.2854C20.5219 23.5892 19.8101 23.7975 19.094 23.9759C16.3241 24.6262 13.4079 24.6356 10.6049 24.1665C8.28146 23.7654 6.02105 22.9054 4.17779 21.5051C3.1819 20.7682 2.38025 19.8209 1.74334 18.798C0.69816 17.1049 0.0952084 15.1751 0.0115144 13.2209C-0.0726236 11.2436 0.303222 9.23943 1.17613 7.43227C1.89985 5.933 2.97388 4.57231 4.34384 3.53437C6.12206 2.1787 8.34939 1.41149 10.6067 1.11586C11.0684 1.03552 11.5375 1.01001 12.0042 0.96402Z" fill="white"/>
  <path fill-rule="evenodd" clip-rule="evenodd" d="M158.811 4.61288C158.117 4.64642 157.428 4.75006 156.758 4.90952C155.17 5.2879 153.708 6.09026 152.598 7.18403C151.422 8.34228 150.63 9.79817 150.235 11.3239C149.797 13.0128 149.958 14.8093 150.58 16.443C151.123 17.8697 152.084 19.1774 153.385 20.1294C154.639 21.046 156.184 21.6086 157.777 21.8102C160.341 22.1342 163.064 21.6411 165.166 20.2398C167.252 18.849 168.574 16.6323 168.909 14.3243C169.139 12.7413 169.019 11.0896 168.383 9.5911C167.981 8.64213 167.366 7.76466 166.58 7.03722C165.752 6.27142 164.739 5.67553 163.641 5.27786C162.114 4.72415 160.447 4.53355 158.811 4.61288ZM159.128 5.63114V20.8243L158.986 20.8066C158.804 20.7855 158.622 20.7582 158.443 20.7235L158.344 20.7044V5.68858C158.607 5.65625 158.863 5.63817 159.128 5.63114ZM157.422 20.4551C155.641 19.8516 154.263 18.6387 153.44 17.0983C152.556 15.4434 152.272 13.5631 152.418 11.7415C152.54 10.2191 153.167 8.80903 154.244 7.63351C155.071 6.73235 156.189 6.14549 157.434 5.85106L157.591 5.8139V20.5124L157.422 20.4551ZM161.583 5.94365C162.496 6.2196 163.309 6.6727 163.997 7.28044C165.084 8.24065 165.907 9.50795 166.268 10.8441C166.641 12.2283 166.679 13.6726 166.497 15.0833C166.338 16.2947 165.939 17.5022 165.179 18.5194C164.326 19.661 163.044 20.3842 161.571 20.6919L161.418 20.7247V5.89364L161.583 5.94365ZM160.549 20.8365C160.369 20.85 160.188 20.8582 160.007 20.8596L159.88 20.861V5.64299C160.083 5.63817 160.461 5.67733 160.664 5.73096V20.8285L160.549 20.8365Z" fill="white"/>
  <path fill-rule="evenodd" clip-rule="evenodd" d="M171.619 5.36564C171.65 5.21582 171.734 5.01156 171.966 5.01678C172.227 5.04811 172.397 5.23329 172.574 5.37528C174.281 6.87636 175.993 8.37423 177.71 9.86727C179.58 11.4977 181.471 13.1136 183.325 14.7563C184.617 15.8963 185.892 17.0493 187.201 18.177C187.111 14.9531 187.028 11.7293 186.941 8.50517C186.909 7.87253 186.953 7.23024 186.792 6.60603C186.726 6.3357 186.537 6.06216 186.204 5.95973C185.715 5.80849 185.181 5.82657 184.669 5.78901C184.464 5.78018 184.367 5.56226 184.478 5.43413C184.636 5.3068 184.876 5.31202 185.085 5.3074C185.941 5.30599 186.796 5.34737 187.652 5.36524C188.545 5.37689 189.443 5.25016 190.331 5.34054C190.632 5.37348 190.608 5.73519 190.327 5.77536C189.923 5.82034 189.487 5.81251 189.132 5.99769C188.847 6.16137 188.772 6.45942 188.737 6.72272C188.65 7.42686 188.714 8.13583 188.685 8.84238C188.679 11.7425 188.66 14.6428 188.656 17.544C188.635 18.6458 188.666 19.749 188.625 20.851C188.598 21.0486 188.625 21.2802 188.458 21.4429C188.285 21.5395 188.071 21.4503 187.929 21.3591C187.529 21.1043 187.172 20.8102 186.811 20.5214C184.912 19.0061 183.072 17.4432 181.23 15.8836C178.435 13.5041 175.716 11.0671 173.003 8.62608C173.107 11.6365 173.204 14.6455 173.306 17.6554C173.331 18.2917 173.328 18.93 173.429 19.5618C173.513 19.982 173.612 20.5287 174.177 20.6984C174.649 20.8237 175.151 20.8169 175.64 20.8596C175.862 20.889 175.918 21.1655 175.727 21.2555C175.471 21.3794 175.156 21.3256 174.875 21.3372C173.857 21.3481 172.841 21.237 171.826 21.2969C171.222 21.3168 170.619 21.3415 170.016 21.3378C169.853 21.3344 169.67 21.3276 169.555 21.2262C169.414 21.096 169.517 20.8548 169.742 20.8536C170.175 20.8169 170.637 20.8293 171.032 20.6548C171.279 20.5104 171.358 20.2523 171.42 20.0235C171.521 19.5385 171.521 19.0457 171.537 18.555C171.549 14.5513 171.554 10.5481 171.565 6.54397C171.572 6.15193 171.54 5.75527 171.619 5.36564Z" fill="white"/>
  <path fill-rule="evenodd" clip-rule="evenodd" d="M211.042 4.74907C212.305 4.63198 213.594 4.71232 214.831 4.94228C215.136 5.00494 215.454 5.00093 215.764 5.04571C215.95 5.0907 215.952 5.26865 215.939 5.39658C215.855 6.1674 215.845 6.94144 215.834 7.71468C215.819 7.87715 215.8 8.11856 215.551 8.15331C215.361 8.16215 215.22 8.03622 215.208 7.89463C215.14 7.52589 215.058 7.15433 214.883 6.80728C214.614 6.35358 214.055 6.06538 213.488 5.89205C212.77 5.67715 211.988 5.62835 211.23 5.6649C210.467 5.72375 209.695 5.95672 209.17 6.41745C208.192 7.25535 208.165 8.64979 209.006 9.56039C209.681 10.2975 210.58 10.8767 211.446 11.4632C212.592 12.1966 213.776 12.9086 214.734 13.8059C215.495 14.5021 216.111 15.3353 216.277 16.263C216.569 17.5072 216.225 18.8446 215.295 19.8737C214.458 20.8205 213.127 21.4345 211.72 21.658C210.171 21.9048 208.542 21.8448 207.033 21.4708C206.693 21.3611 206.335 21.2734 206.027 21.1133C205.793 20.99 205.762 20.7508 205.756 20.5473C205.746 19.7922 205.789 19.0364 205.866 18.2831C205.895 18.072 205.862 17.8324 206.029 17.6524C206.161 17.4966 206.53 17.5789 206.535 17.7723C206.562 17.982 206.544 18.1945 206.577 18.4056C206.65 18.941 206.899 19.4735 207.358 19.8751C207.883 20.3485 208.647 20.608 209.413 20.7211C210.591 20.9076 211.906 20.8014 212.887 20.2063C213.539 19.8147 213.982 19.2202 214.146 18.5841C214.366 17.6253 214.055 16.59 213.263 15.8425C211.561 14.2161 209.1 13.2046 207.543 11.4682C206.763 10.6461 206.356 9.61422 206.405 8.58331C206.414 7.58915 206.887 6.58515 207.797 5.89647C208.671 5.22567 209.853 4.86496 211.042 4.74907Z" fill="white"/>
  <path fill-rule="evenodd" clip-rule="evenodd" d="M202.27 5.13328C202.463 5.10576 202.638 4.99329 202.842 5.02061C203.082 5.14593 202.985 5.40943 202.94 5.59501C202.718 6.27586 202.765 6.98301 202.658 7.67551C202.624 7.8161 202.564 8.01152 202.35 8.031C202.149 8.05289 202.006 7.89242 202.006 7.74862C201.97 7.35838 201.972 6.89083 201.555 6.61949C201.116 6.37226 200.554 6.33069 200.036 6.27566C198.813 6.2154 197.586 6.23248 196.362 6.20677C196.319 7.70503 196.358 9.20531 196.345 10.7042C196.35 11.233 196.333 11.7632 196.353 12.292C197.774 12.2904 199.196 12.3019 200.615 12.2504C201.034 12.2107 201.54 12.2284 201.845 11.9542C201.977 11.8552 202.085 11.7058 202.282 11.6819C202.435 11.6568 202.555 11.7811 202.561 11.8925C202.571 12.0247 202.533 12.1548 202.507 12.2846C202.311 13.0887 202.289 13.9118 202.228 14.7264C202.211 14.8762 202.054 15.0514 201.841 14.9837C201.556 14.9118 201.638 14.6304 201.608 14.4498C201.584 14.1729 201.508 13.871 201.255 13.6648C200.929 13.4284 200.471 13.378 200.049 13.3508C198.818 13.2896 197.586 13.2679 196.354 13.2548C196.337 14.9055 196.345 16.5569 196.336 18.2078C196.371 18.7962 196.27 19.4405 196.677 19.9661C197.061 20.3531 197.745 20.377 198.316 20.4212C199.301 20.4491 200.297 20.4702 201.274 20.3435C201.738 20.2796 202.222 20.131 202.511 19.8205C202.774 19.5329 202.888 19.1808 202.969 18.8372C203.006 18.7022 203.027 18.5552 203.139 18.4419C203.232 18.3359 203.469 18.3263 203.558 18.4435C203.666 18.5755 203.637 18.7444 203.633 18.895C203.566 19.4644 203.474 20.0324 203.358 20.597C203.298 20.8299 203.243 21.077 203.053 21.2686C202.846 21.462 202.502 21.4748 202.207 21.4823C200.095 21.4951 197.983 21.4606 195.873 21.3828C194.821 21.331 193.768 21.4222 192.716 21.4208C192.476 21.412 192.201 21.4569 192.004 21.3282C191.829 21.2192 191.917 20.9633 192.14 20.9428C192.488 20.8952 192.858 20.9123 193.188 20.797C193.437 20.6962 193.525 20.466 193.592 20.2672C193.767 19.6841 193.771 19.0806 193.808 18.4855C193.857 16.9328 193.832 15.3787 193.838 13.826C193.836 12.0076 193.839 10.1894 193.837 8.37102C193.83 7.79822 193.831 7.22523 193.764 6.65484C193.729 6.37628 193.62 6.06417 193.299 5.90912C192.847 5.6884 192.298 5.69904 191.79 5.66952C191.608 5.6637 191.464 5.51548 191.524 5.3777C191.579 5.22486 191.814 5.1851 191.991 5.1853C193.022 5.17646 194.052 5.22084 195.082 5.24053C197.048 5.23952 199.014 5.24796 200.979 5.22828C201.411 5.21663 201.847 5.20538 202.27 5.13328Z" fill="white"/>
  <path fill-rule="evenodd" clip-rule="evenodd" d="M77.2126 5.00995C77.3552 4.97038 77.5645 4.87298 77.6708 5.01638C77.7972 5.23228 77.6686 5.47329 77.6256 5.69401C77.4611 6.32625 77.4995 6.97818 77.4051 7.61766C77.3765 7.77391 77.299 7.98981 77.0681 7.98981C76.8461 7.97716 76.7602 7.77531 76.7677 7.61565C76.7502 7.23064 76.7065 6.76409 76.2902 6.52589C75.8356 6.2899 75.2823 6.25255 74.7629 6.20455C73.6462 6.16137 72.528 6.15996 71.4111 6.1463C71.3847 8.18804 71.4042 10.2306 71.4013 12.2727C72.5968 12.2798 73.7923 12.2747 74.9864 12.2502C75.4484 12.2291 75.9279 12.234 76.3659 12.0964C76.6694 12.0068 76.7822 11.6387 77.1365 11.6582C77.3911 11.758 77.3019 12.0337 77.2706 12.2163C77.0683 13.0596 77.0637 13.923 76.9853 14.777C76.9713 15.0086 76.5773 15.0929 76.4581 14.8778C76.3522 14.5878 76.4427 14.2649 76.2887 13.9801C76.1779 13.6607 75.8087 13.4701 75.4389 13.4095C74.8983 13.3161 74.3426 13.3249 73.7952 13.299C72.9953 13.2807 72.1952 13.248 71.3958 13.2611C71.4109 14.9308 71.3838 16.6022 71.3902 18.2726C71.406 18.8052 71.3576 19.3684 71.6158 19.8681C71.7803 20.2047 72.2207 20.3517 72.6188 20.4081C73.469 20.5258 74.3366 20.4941 75.1949 20.477C75.8125 20.4306 76.4907 20.4142 77.0046 20.0846C77.3585 19.8615 77.5172 19.4983 77.6251 19.1517C77.6917 18.946 77.701 18.7267 77.8087 18.5305C77.886 18.3943 78.1663 18.3351 78.2634 18.4855C78.375 18.6476 78.3364 18.8444 78.324 19.0221C78.2516 19.597 78.1663 20.1718 78.0525 20.7411C77.9983 20.9693 77.9295 21.2165 77.7232 21.384C77.4853 21.559 77.1476 21.5479 76.8523 21.5596C74.9784 21.565 73.1039 21.5351 71.2326 21.4603C70.0296 21.3868 68.8268 21.5045 67.6231 21.4869C67.4391 21.4905 67.1796 21.4282 67.174 21.2416C67.1469 21.1223 67.2639 21.0135 67.4031 21.0012C67.777 20.9456 68.2196 20.991 68.5267 20.7705C68.8164 20.46 68.835 20.0426 68.9016 19.6681C69.0231 18.4086 68.998 17.1443 69.0057 15.8814C69.0026 13.2623 69.0084 10.6441 69.0035 8.02556C68.9878 7.51201 68.9944 6.99626 68.9189 6.48572C68.8761 6.21097 68.7209 5.92357 68.4059 5.80226C67.9805 5.6195 67.4913 5.63496 67.029 5.60142C66.819 5.58897 66.7096 5.35037 66.8552 5.22485C66.9798 5.11157 67.1756 5.10776 67.3467 5.10615C68.2949 5.10434 69.2431 5.14451 70.1914 5.1656C72.044 5.1644 73.8973 5.17243 75.7499 5.15335C76.2376 5.13206 76.7442 5.14371 77.2126 5.00995Z" fill="white"/>
  <path fill-rule="evenodd" clip-rule="evenodd" d="M113.096 5.25137C113.118 5.07905 113.342 5.0198 113.509 5.0206C114.463 5.00876 115.415 5.05937 116.369 5.07644C117.146 5.06158 117.922 5.01779 118.7 5.01458C118.84 5.02 118.999 5.02542 119.114 5.11259C119.253 5.20859 119.212 5.44819 119.035 5.49057C118.631 5.57814 118.145 5.51367 117.821 5.78842C117.494 6.10916 117.527 6.57691 117.491 6.9796C117.437 8.59696 117.462 10.2161 117.457 11.8349C120.896 11.8359 124.334 11.8355 127.773 11.8355C127.767 10.2567 127.793 8.6777 127.745 7.1001C127.699 6.67111 127.76 6.15856 127.39 5.82658C126.993 5.53395 126.442 5.54359 125.955 5.51768C125.793 5.5227 125.648 5.39618 125.669 5.25137C125.699 5.08186 125.916 5.0206 126.084 5.0206C126.993 5.01719 127.901 5.05635 128.808 5.07704C129.608 5.06961 130.407 5.02121 131.208 5.01719C131.384 5.0196 131.593 5.01478 131.722 5.14352C131.834 5.26583 131.749 5.47551 131.575 5.50523C131.188 5.56548 130.741 5.52732 130.423 5.76612C130.108 6.03123 130.109 6.44818 130.076 6.80527C130.006 8.26517 130.044 9.72689 130.033 11.1876C130.033 12.8973 130.033 14.6067 130.033 16.316C130.051 17.5086 130.023 18.7052 130.167 19.8908C130.212 20.2348 130.299 20.6528 130.69 20.8171C131.192 20.9892 131.755 20.9074 132.265 21.0273C132.401 21.1003 132.41 21.2888 132.295 21.3816C132.156 21.4865 131.962 21.481 131.792 21.4853C131.056 21.477 130.318 21.4642 129.582 21.4401C128.549 21.3802 127.515 21.4995 126.482 21.4839C126.334 21.481 126.166 21.4571 126.076 21.3443C125.981 21.2218 126.05 21.029 126.219 20.9974C126.534 20.95 126.866 20.9647 127.167 20.8524C127.4 20.7562 127.483 20.5194 127.548 20.3164C127.707 19.7145 127.712 19.0904 127.744 18.4751C127.792 16.6022 127.771 14.7282 127.773 12.8542C124.334 12.8499 120.896 12.8508 117.458 12.8536C117.457 14.6234 117.445 16.3932 117.481 18.1632C117.503 18.8157 117.516 19.4722 117.631 20.1183C117.682 20.4072 117.831 20.7271 118.164 20.8353C118.631 20.9635 119.128 20.9362 119.608 20.9932C119.843 21.0245 119.866 21.3469 119.653 21.423C119.35 21.5313 119.016 21.4676 118.7 21.477C117.62 21.4825 116.543 21.3804 115.465 21.4477C114.904 21.4594 114.341 21.5033 113.781 21.4742C113.583 21.4714 113.39 21.3013 113.479 21.1213C113.564 20.9504 113.806 20.9852 113.977 20.9635C114.292 20.9324 114.701 20.9159 114.85 20.6174C115.062 20.1939 115.088 19.7199 115.129 19.2638C115.229 17.6103 115.187 15.9541 115.197 14.299C115.197 12.5895 115.197 10.8799 115.197 9.17056C115.192 8.32563 115.211 7.47989 115.144 6.63676C115.112 6.32908 115.057 5.96636 114.748 5.77536C114.346 5.54038 113.846 5.53556 113.383 5.51588C113.225 5.51768 113.067 5.40059 113.096 5.25137Z" fill="white"/>
  <path fill-rule="evenodd" clip-rule="evenodd" d="M133.256 5.17824C133.355 5.03585 133.575 5.01717 133.753 5.01617C134.692 5.023 135.632 5.04931 136.57 5.07843C138.259 5.06678 139.959 4.92278 141.642 5.1204C142.682 5.2391 143.716 5.52992 144.555 6.07339C145.5 6.73636 146.133 7.71907 146.224 8.7552C146.276 9.78632 145.973 10.8269 145.359 11.7204C144.795 12.569 144.022 13.3052 143.186 13.9704C144.716 15.6199 146.221 17.2885 147.856 18.8663C148.542 19.526 149.288 20.1718 150.228 20.5736C150.918 20.8787 151.704 20.9747 152.474 20.9827C152.714 20.959 152.93 21.2217 152.724 21.3732C152.453 21.5308 152.097 21.4672 151.786 21.482C150.602 21.4589 149.395 21.5616 148.233 21.3212C147.058 21.0462 146.202 20.2672 145.461 19.4969C144.043 17.9882 142.694 16.4349 141.355 14.8774C141.24 14.7467 141.114 14.5735 140.89 14.5956C139.841 14.586 138.792 14.5575 137.743 14.5607C137.735 15.8989 137.74 17.2371 137.777 18.5747C137.802 19.1091 137.816 19.6486 137.936 20.1758C138.001 20.4501 138.167 20.7518 138.51 20.8432C139.009 20.9655 139.538 20.9351 140.049 21.0024C140.262 21.0542 140.278 21.328 140.085 21.4109C139.845 21.5146 139.565 21.475 139.309 21.4792C138.394 21.4724 137.482 21.4437 136.568 21.422C135.746 21.4451 134.923 21.48 134.101 21.482C133.97 21.4786 133.831 21.471 133.727 21.4029C133.55 21.3155 133.581 21.0611 133.776 21.0064C134.15 20.9289 134.577 20.986 134.914 20.8036C135.203 20.5795 135.237 20.2212 135.306 19.9155C135.459 18.8739 135.421 17.8219 135.449 16.7751C135.453 14.1255 135.45 11.4744 135.451 8.82469C135.43 8.07154 135.462 7.31759 135.388 6.56645C135.357 6.27824 135.278 5.95088 134.975 5.77675C134.537 5.52811 133.987 5.54277 133.483 5.51023C133.292 5.50401 133.168 5.31803 133.256 5.17824ZM138.111 5.98622C137.946 6.00129 137.713 6.04286 137.743 6.22502C137.733 8.51359 137.745 10.8034 137.738 13.0923C137.736 13.2076 137.737 13.3603 137.891 13.4107C138.419 13.6081 139.006 13.6428 139.574 13.6953C140.426 13.7362 141.343 13.7933 142.124 13.4432C142.962 13.0526 143.421 12.2783 143.647 11.5238C143.931 10.4891 143.916 9.38685 143.555 8.36618C143.242 7.46581 142.515 6.63634 141.479 6.24651C140.433 5.82796 139.233 5.87034 138.111 5.98622Z" fill="white"/>
  <path fill-rule="evenodd" clip-rule="evenodd" d="M32.2985 4.98103C32.3982 4.81252 32.6764 4.8067 32.7954 4.96155C32.9914 5.20135 33.0791 5.49578 33.2079 5.76752C34.6813 9.26053 36.1303 12.7626 37.6248 16.2486C38.0708 17.268 38.4728 18.3058 38.9832 19.3013C39.2744 19.8245 39.6099 20.3706 40.1707 20.6879C40.529 20.8665 40.9399 20.9428 41.3446 20.9554C41.4729 20.9671 41.6245 20.9534 41.7273 21.0422C41.8241 21.1408 41.7882 21.3151 41.6618 21.38C41.4667 21.4766 41.2343 21.4604 41.0203 21.4674C39.7933 21.4591 38.5649 21.4569 37.3391 21.4128C37.1397 21.3923 36.897 21.4113 36.7492 21.2637C36.6659 21.1051 36.8136 20.9755 36.9597 20.9159C37.1686 20.813 37.0669 20.5576 37.0041 20.3983C36.2768 18.6604 35.5806 16.9115 34.8364 15.1799C33.1559 15.1805 31.4758 15.1771 29.7959 15.1819C29.659 15.1574 29.6261 15.2861 29.5908 15.3747C29.135 16.6093 28.6753 17.8432 28.2213 19.0784C28.0541 19.5375 27.8949 20.0143 27.916 20.5033C27.9671 20.8303 28.3811 20.948 28.6944 20.954C28.8802 20.9731 29.1555 20.9215 29.248 21.1163C29.3249 21.3172 29.0882 21.465 28.8913 21.461C28.2255 21.4794 27.5608 21.4069 26.8946 21.4065C26.0537 21.427 25.213 21.4658 24.3714 21.468C24.1771 21.4658 23.9431 21.4652 23.8119 21.3113C23.7162 21.1561 23.8581 20.9613 24.0484 20.9679C24.5772 20.9368 25.1621 20.9348 25.5924 20.6058C26.1798 20.1659 26.4282 19.4807 26.6888 18.854C28.422 14.5167 30.1582 10.1796 31.8896 5.84123C32.0113 5.54921 32.1098 5.24393 32.2985 4.98103ZM31.3737 10.4696C30.9312 11.7124 30.4881 12.9552 30.0455 14.1984C31.5138 14.199 32.9823 14.199 34.4506 14.1984C33.6896 12.2281 32.9417 10.2533 32.1667 8.28786C31.8765 9.00687 31.641 9.74335 31.3737 10.4696Z" fill="white"/>
  <path fill-rule="evenodd" clip-rule="evenodd" d="M45.9771 5.49719C46.0084 5.29053 46.0625 5.01437 46.3218 4.94247C46.5929 4.91275 46.7501 5.1417 46.8469 5.32849C49.2693 9.72527 51.6854 14.1243 54.1085 18.5215C56.4606 14.0913 58.8014 9.65659 61.1543 5.22766C61.2442 5.02883 61.5331 4.83442 61.7579 5.00594C61.9364 5.18569 61.9344 5.44517 61.9748 5.67032C62.475 9.71724 62.9752 13.7644 63.4753 17.8113C63.577 18.4978 63.5928 19.2011 63.8341 19.8645C63.9748 20.2553 64.241 20.6482 64.6855 20.8159C65.2283 21.0065 65.8205 21.0412 66.3986 21.0597C66.6007 21.0406 66.7197 21.2734 66.5887 21.4021C66.4073 21.578 66.1105 21.5562 65.8656 21.5594C64.5309 21.5296 63.1945 21.5092 61.8625 21.4192C61.6414 21.3866 61.3168 21.3919 61.218 21.1754C61.1397 21.0189 61.3122 20.9042 61.4538 20.8484C61.5222 20.5475 61.4669 20.2411 61.4385 19.9402C61.0706 16.4548 60.7046 12.9692 60.3371 9.48346C58.2828 13.3219 56.2477 17.1684 54.1893 21.0052C54.0614 21.1987 53.9613 21.5094 53.6578 21.5174C53.3954 21.5051 53.2882 21.2519 53.1659 21.0858C52.2313 19.557 51.3746 17.9933 50.4868 16.444C49.498 14.6991 48.5936 12.9192 47.6598 11.1518C47.411 10.6564 47.1408 10.1705 46.8973 9.67366C46.632 12.3709 46.3727 15.069 46.1092 17.7665C46.0312 18.6464 45.9003 19.5257 45.9431 20.4096C45.9495 20.6281 46.1143 20.8323 46.3474 20.9068C46.7026 21.0193 47.0835 21.0285 47.4549 21.0667C47.6339 21.0769 47.7229 21.276 47.6265 21.4025C47.5271 21.5244 47.3461 21.556 47.1872 21.5586C46.1882 21.5776 45.1896 21.4591 44.1911 21.5176C43.7238 21.5284 43.2567 21.5708 42.7892 21.5557C42.6062 21.5515 42.3514 21.4979 42.3281 21.3051C42.2908 21.1729 42.4464 21.0665 42.5836 21.0641C42.9825 21.0245 43.4483 21.0655 43.7697 20.812C44.0879 20.5184 44.1445 20.0914 44.1991 19.706C44.7929 14.9702 45.3848 10.2338 45.9771 5.49719Z" fill="white"/>
  <path fill-rule="evenodd" clip-rule="evenodd" d="M99.5999 8.63189C99.68 8.6112 99.7833 8.5624 99.8603 8.62406C100.023 8.7548 99.9158 8.95605 99.8889 9.11712C99.7833 9.49811 99.8439 9.89758 99.7466 10.2798C99.7249 10.4292 99.4844 10.53 99.3721 10.39C99.2527 10.1653 99.3164 9.87348 99.1042 9.68289C98.846 9.47622 98.4759 9.43846 98.1393 9.43364C97.4554 9.42541 96.4215 9.40854 95.7382 9.40372C95.7382 10.6869 95.7393 12.1651 95.7393 13.4476C96.6249 13.4394 97.3284 13.4422 98.2144 13.432C98.4055 13.4277 98.6007 13.4217 98.7887 13.3795C98.9825 13.3426 99.06 13.161 99.2231 13.0787C99.4403 13.0303 99.508 13.257 99.456 13.3974C99.3299 13.9176 99.3315 14.4508 99.2851 14.9772C99.2809 15.1393 99.0182 15.2136 98.9128 15.0795C98.7971 14.8505 98.8782 14.5565 98.6639 14.3631C98.4506 14.158 98.1107 14.1303 97.8114 14.1235C97.0593 14.105 96.4899 14.1016 95.738 14.0973C95.7406 15.4239 95.7293 16.5552 95.7744 17.8812C95.7921 18.1883 95.7799 18.5092 95.9182 18.7992C96.0474 19.0314 96.3882 19.0111 96.6415 19.0404C96.8016 19.0661 97.0342 19.0143 97.1237 19.1698C97.1752 19.2943 97.0522 19.4188 96.9081 19.4256C96.077 19.468 95.2449 19.3672 94.4137 19.4188C94.0983 19.4256 93.7821 19.4501 93.4691 19.4264C93.2795 19.4319 93.1605 19.19 93.3299 19.0961C93.5628 18.9952 93.9173 19.1007 94.0763 18.8767C94.2388 18.5676 94.2339 18.2162 94.2523 17.8824C94.3023 16.4034 94.2801 14.9242 94.2854 13.4442C94.2803 12.2348 94.2985 11.0249 94.2643 9.81604C94.2412 9.60878 94.2579 9.34487 94.0321 9.21372C93.7746 9.04582 93.4336 9.11732 93.143 9.04763C92.9683 8.98456 93.0187 8.73793 93.2005 8.71423C93.4436 8.67748 93.6929 8.70138 93.9398 8.69937C95.3115 8.74456 97.034 8.72106 98.4075 8.72428C98.8038 8.70218 99.22 8.75661 99.5999 8.63189Z" fill="white"/>
  <path fill-rule="evenodd" clip-rule="evenodd" d="M86.5802 8.87371C88.041 8.73373 89.5866 8.97132 90.8233 9.74817C91.6687 10.2677 92.3269 11.0428 92.6977 11.9257C93.1461 12.9735 93.1998 14.1448 92.9849 15.248C92.7463 16.4669 92.0783 17.6227 91.0635 18.42C90.0752 19.2162 88.7812 19.6397 87.4882 19.6759C86.2146 19.7175 84.8933 19.4445 83.849 18.7321C82.8466 18.0716 82.1469 17.0555 81.8101 15.9549C81.3473 14.5207 81.5129 12.92 82.279 11.6045C82.7405 10.7723 83.4349 10.0498 84.2956 9.57123C84.9878 9.17839 85.7793 8.95787 86.5802 8.87371ZM87.6425 9.71724V18.7621C87.8654 18.7554 88.0861 18.7335 88.3012 18.7008V9.82549C88.0896 9.77649 87.8698 9.73953 87.6425 9.71724ZM87.0174 18.747V9.69234C86.7905 9.69676 86.5705 9.71624 86.3587 9.75058V18.6486C86.5754 18.696 86.7965 18.7287 87.0174 18.747ZM85.7335 18.4638V9.90001C84.3869 10.3348 83.4598 11.4184 83.2394 12.8915C83.0837 13.9234 83.1614 14.9955 83.5164 15.9849C83.8277 16.8762 84.3742 17.7649 85.2349 18.2357C85.3952 18.3234 85.5619 18.3985 85.7335 18.4638ZM88.9263 10.0171V18.5646C89.5002 18.4024 90.0035 18.1471 90.3602 17.8237C91.1244 17.0174 91.4187 15.9134 91.4729 14.8559C91.5502 13.5386 91.2915 12.141 90.439 11.0637C90.104 10.6397 89.5775 10.2671 88.9263 10.0171Z" fill="white"/>
</svg>
